# Blender v2.90.0 OBJ File: 'TrainWallDoor.blend'
# www.blender.org
mtllib TrainWallDoor1.mtl
o Wall5_Cube.002
v -0.154270 0.000000 -5.999999
v -0.154270 0.156229 -5.999999
v 0.154270 0.000000 -5.999999
v 0.154270 0.156229 -5.999999
v 0.000000 0.000000 -5.999999
v 0.000000 0.156229 -5.999999
v -0.154270 6.999993 -5.999999
v 0.000000 6.999993 -5.999999
v -0.154270 0.156229 5.998638
v 0.154270 0.000000 5.998638
v -0.154270 0.000000 5.998638
v 0.154270 0.156229 5.998638
v 0.000000 0.156229 5.998638
v 0.000000 0.000000 5.998638
v -0.154270 6.999993 5.998638
v 0.000000 6.999993 5.998638
v -0.154270 6.999993 5.998638
v -0.154270 6.999993 -5.999999
v 0.061941 6.999993 -5.999999
v 0.061941 6.999993 5.998638
v -0.154270 7.999999 5.998638
v -0.154270 7.999999 -5.999999
v 0.061941 7.999999 -5.999999
v 0.061941 7.999999 5.998638
v 0.000000 2.981306 -5.999999
v -0.154270 2.981306 -5.999999
v -0.154270 2.981306 5.998638
v 0.000000 2.981306 5.998638
v 0.000000 4.393844 -5.999999
v -0.154270 4.393844 5.998638
v 0.000000 4.393844 5.998638
v -0.154270 4.393844 -5.999999
v -0.154270 1.568767 -5.999999
v 0.000000 1.568768 -5.999999
v -0.154270 1.568768 5.998638
v 0.000000 1.568768 5.998638
v -0.154270 0.156229 -0.000680
v 0.154270 0.000000 -0.000680
v -0.154270 6.999993 -0.000680
v -0.154270 0.000000 -0.000680
v 0.154270 0.156229 -0.000680
v 0.000000 0.156229 -0.000680
v 0.000000 0.000000 -0.000680
v 0.000000 6.999993 -0.000680
v -0.154270 6.999993 -0.000680
v 0.061941 6.999993 -0.000680
v -0.154270 7.999999 -0.000680
v 0.061941 7.999999 -0.000680
v -0.154270 -0.000000 2.182185
v 0.154270 0.156229 2.182185
v 0.000000 0.156229 2.182185
v 0.000000 -0.000000 2.182185
v 0.000000 6.999993 2.182185
v 0.061941 6.999993 2.182185
v 0.061941 7.999999 2.182185
v 0.000000 2.981306 2.182185
v 0.000000 4.393844 2.182185
v 0.000000 1.568768 2.182185
v -0.154270 0.156229 2.182185
v 0.154270 -0.000000 2.182185
v -0.154270 6.999993 2.182185
v -0.154270 6.999993 2.182185
v -0.154270 7.999999 2.182185
v -0.154270 2.981306 2.182185
v -0.154270 4.393844 2.182185
v -0.154270 1.568767 2.182185
v -0.154270 0.156229 -2.183546
v 0.154270 -0.000000 -2.183546
v -0.154270 6.999993 -2.183546
v -0.154270 6.999993 -2.183546
v -0.154270 7.999999 -2.183546
v -0.154270 2.981306 -2.183546
v -0.154270 4.393844 -2.183546
v -0.154270 1.568767 -2.183546
v -0.154270 -0.000000 -2.183546
v 0.154270 0.156229 -2.183546
v 0.000000 0.156229 -2.183546
v 0.000000 -0.000000 -2.183546
v 0.000000 6.999993 -2.183546
v 0.061941 6.999993 -2.183546
v 0.061941 7.999999 -2.183546
v 0.000000 2.981306 -2.183546
v 0.000000 4.393844 -2.183546
v 0.000000 1.568768 -2.183546
v 0.000000 5.139027 -5.999999
v -0.154270 5.139027 5.998638
v 0.000000 5.139027 5.998638
v -0.154270 5.139027 -5.999999
v -0.154270 5.925155 -0.000680
v 0.000000 5.925155 -0.000680
v 0.000000 5.139027 2.182185
v -0.154270 5.139027 2.182185
v -0.154270 5.139027 -2.183546
v 0.000000 5.139027 -2.183546
v -0.154270 0.156229 1.090752
v 0.154270 -0.000000 1.090752
v -0.154270 6.999993 1.090752
v -0.154270 6.999993 1.090752
v -0.154270 7.999999 1.090752
v -0.154270 -0.000000 1.090752
v 0.154270 0.156229 1.090752
v 0.000000 0.156229 1.090752
v 0.000000 -0.000000 1.090752
v 0.000000 6.999993 1.090752
v 0.061941 6.999993 1.090752
v 0.061941 7.999999 1.090752
v -0.154270 5.696918 1.090752
v 0.000000 5.696918 1.090752
v -0.154270 -0.000000 -1.092113
v 0.154270 0.156229 -1.092113
v 0.000000 0.156229 -1.092113
v 0.000000 -0.000000 -1.092113
v 0.000000 6.999993 -1.092113
v 0.061941 6.999993 -1.092113
v 0.061941 7.999999 -1.092113
v -0.154270 0.156229 -1.092113
v 0.154270 -0.000000 -1.092113
v -0.154270 6.999993 -1.092113
v -0.154270 6.999993 -1.092113
v -0.154270 7.999999 -1.092113
v 0.000000 5.696918 -1.092113
v -0.154270 5.696918 -1.092113
vt 0.375000 0.234375
vt 0.625000 0.234375
vt 0.625000 0.250000
vt 0.375000 0.250000
vt 0.375000 0.375000
vt 0.625000 0.375000
vt 0.625000 0.500000
vt 0.375000 0.500000
vt 0.750000 0.515625
vt 0.750000 0.500000
vt 0.750000 0.500000
vt 0.750000 0.515625
vt 0.625000 0.375000
vt 0.625000 0.250000
vt 0.625000 0.250000
vt 0.625000 0.375000
vt 0.750000 0.500000
vt 0.750000 0.515625
vt 0.625000 0.203125
vt 0.625000 0.187500
vt 0.625000 0.187500
vt 0.625000 0.203125
vt 0.375000 0.546875
vt 0.625000 0.546875
vt 0.625000 0.562500
vt 0.375000 0.562500
vt 0.250000 0.546875
vt 0.250000 0.562500
vt 0.750000 0.546875
vt 0.750000 0.562500
vt 0.125000 0.546875
vt 0.125000 0.562500
vt 0.750000 0.500000
vt 0.750000 0.515625
vt 0.625000 0.250000
vt 0.625000 0.375000
vt 0.625000 0.187500
vt 0.625000 0.203125
vt 0.750000 0.546875
vt 0.875000 0.546875
vt 0.875000 0.562500
vt 0.750000 0.562500
vt 0.625000 0.250000
vt 0.625000 0.375000
vt 0.625000 0.187500
vt 0.625000 0.203125
vt 0.625000 0.203125
vt 0.625000 0.187500
vt 0.625000 0.187500
vt 0.625000 0.203125
vt 0.625000 0.375000
vt 0.625000 0.250000
vt 0.625000 0.250000
vt 0.625000 0.375000
vt 0.750000 0.515625
vt 0.750000 0.500000
vt 0.750000 0.500000
vt 0.750000 0.515625
vt 0.625000 0.187500
vt 0.625000 0.203125
vt 0.625000 0.250000
vt 0.625000 0.375000
vt 0.750000 0.500000
vt 0.750000 0.515625
vt 0.750000 0.515625
vt 0.750000 0.500000
vt 0.625000 0.203125
vt 0.625000 0.187500
vt 0.750000 0.562500
vt 0.750000 0.562500
vt 0.750000 0.562500
vt 0.750000 0.562500
vt 0.750000 0.562500
vt 0.750000 0.562500
vt 0.750000 0.539062
vt 0.750000 0.531250
vt 0.625000 0.218750
vt 0.625000 0.210938
vt 0.750000 0.531250
vt 0.750000 0.539062
vt 0.625000 0.210938
vt 0.625000 0.218750
vt 0.625000 0.226562
vt 0.625000 0.218750
vt 0.625000 0.218750
vt 0.625000 0.226562
vt 0.750000 0.523438
vt 0.875000 0.523438
vt 0.875000 0.531250
vt 0.750000 0.531250
vt 0.625000 0.226562
vt 0.625000 0.218750
vt 0.750000 0.539062
vt 0.750000 0.531250
vt 0.750000 0.539062
vt 0.125000 0.523438
vt 0.250000 0.523438
vt 0.250000 0.531250
vt 0.125000 0.531250
vt 0.625000 0.523438
vt 0.750000 0.523438
vt 0.625000 0.531250
vt 0.375000 0.523438
vt 0.375000 0.531250
vt 0.625000 0.226562
vt 0.750000 0.539062
vt 0.750000 0.531250
vt 0.375000 0.210938
vt 0.375000 0.218750
vt 0.375000 0.187500
vt 0.375000 0.203125
vt 0.750000 0.546875
vt 0.750000 0.546875
vt 0.750000 0.546875
vt 0.750000 0.546875
vt 0.750000 0.546875
vt 0.750000 0.546875
vt 0.625000 0.210938
vt 0.625000 0.210938
vt 0.875000 0.539062
vt 0.625000 0.210938
vt 0.125000 0.539062
vt 0.250000 0.539062
vt 0.625000 0.539062
vt 0.375000 0.539062
vt 0.625000 0.234375
vt 0.625000 0.234375
vt 0.625000 0.515625
vt 0.375000 0.515625
vt 0.250000 0.500000
vt 0.250000 0.515625
vt 0.125000 0.500000
vt 0.125000 0.515625
vt 0.625000 0.234375
vt 0.875000 0.500000
vt 0.875000 0.515625
vt 0.625000 0.234375
vt 0.625000 0.234375
vt 0.625000 0.234375
vt 0.625000 0.234375
vt 0.750000 0.523438
vt 0.750000 0.523438
vt 0.750000 0.523438
vt 0.375000 0.226562
vt 0.625000 0.226562
vn -1.0000 0.0000 0.0000
vn 0.0000 0.0000 -1.0000
vn 1.0000 0.0000 0.0000
vn 0.0000 -1.0000 0.0000
vn 0.0000 1.0000 0.0000
vn 0.0000 0.0000 1.0000
vn 0.0000 -0.9788 -0.2047
vn 0.0000 -0.8904 0.4551
vn 0.0000 -0.9788 0.2047
vn 0.0000 -0.8904 -0.4551
usemtl None
s off
f 75/1/1 67/2/1 2/3/1 1/4/1
f 5/5/2 6/6/2 4/7/2 3/8/2
f 1/4/2 2/3/2 6/6/2 5/5/2
f 94/9/3 85/10/3 8/11/3 79/12/3
f 85/13/2 88/14/2 7/15/2 8/16/2
f 79/12/4 8/11/4 19/17/4 80/18/4
f 92/19/1 86/20/1 15/21/1 61/22/1
f 60/23/3 50/24/3 12/25/3 10/26/3
f 52/27/4 60/23/4 10/26/4 14/28/4
f 50/24/5 51/29/5 13/30/5 12/25/5
f 49/31/4 52/27/4 14/28/4 11/32/4
f 80/18/3 19/17/3 23/33/3 81/34/3
f 8/16/6 7/15/6 18/35/6 19/36/6
f 61/22/6 15/21/6 17/37/6 62/38/6
f 55/39/5 63/40/5 21/41/5 24/42/5
f 19/36/2 18/35/2 22/43/2 23/44/2
f 62/38/1 17/37/1 21/45/1 63/46/1
f 66/47/1 35/48/1 27/49/1 64/50/1
f 34/51/2 33/52/2 26/53/2 25/54/2
f 84/55/3 34/56/3 25/57/3 82/58/3
f 64/50/1 27/49/1 30/59/1 65/60/1
f 25/54/2 26/53/2 32/61/2 29/62/2
f 82/58/3 25/57/3 29/63/3 83/64/3
f 77/65/3 6/66/3 34/56/3 84/55/3
f 6/6/2 2/3/2 33/52/2 34/51/2
f 59/67/1 9/68/1 35/48/1 66/47/1
f 36/69/6 28/70/6 27/49/6 35/48/6
f 13/30/6 36/69/6 35/48/6 9/68/6
f 13/30/6 9/68/6 11/32/6 14/28/6
f 12/25/6 13/30/6 14/28/6 10/26/6
f 28/70/6 31/71/6 30/59/6 27/49/6
f 87/72/6 16/73/6 15/21/6 86/20/6
f 21/45/6 17/37/6 20/74/6 24/42/6
f 102/75/5 42/76/5 37/77/5 95/78/5
f 90/79/7 108/80/7 107/81/7 89/82/7
f 51/29/5 102/75/5 95/78/5 59/67/5
f 119/83/1 45/84/1 47/85/1 120/86/1
f 115/87/5 120/88/5 47/89/5 48/90/5
f 118/91/6 39/92/6 45/84/6 119/83/6
f 105/93/3 46/94/3 48/90/3 106/95/3
f 109/96/4 112/97/4 43/98/4 40/99/4
f 110/100/5 111/101/5 42/76/5 41/102/5
f 112/97/4 117/103/4 38/104/4 43/98/4
f 117/103/3 110/100/3 41/102/3 38/104/3
f 122/105/1 89/82/1 39/92/1 118/91/1
f 104/106/4 44/107/4 46/94/4 105/93/4
f 108/80/3 90/79/3 44/107/3 104/106/3
f 100/108/1 95/78/1 37/77/1 40/109/1
f 11/110/1 9/68/1 59/67/1 49/111/1
f 87/72/3 91/112/3 53/113/3 16/73/3
f 16/73/4 53/113/4 54/114/4 20/74/4
f 20/74/3 54/114/3 55/39/3 24/42/3
f 36/69/3 58/115/3 56/116/3 28/70/3
f 28/70/3 56/116/3 57/117/3 31/71/3
f 13/30/3 51/29/3 58/115/3 36/69/3
f 98/118/1 62/38/1 63/46/1 99/119/1
f 106/95/5 99/120/5 63/40/5 55/39/5
f 97/121/6 61/22/6 62/38/6 98/118/6
f 100/122/4 103/123/4 52/27/4 49/31/4
f 101/124/5 102/75/5 51/29/5 50/24/5
f 103/123/4 96/125/4 60/23/4 52/27/4
f 96/125/3 101/124/3 50/24/3 60/23/3
f 107/81/1 92/19/1 61/22/1 97/121/1
f 88/14/1 93/126/1 69/127/1 7/15/1
f 3/8/3 4/7/3 76/128/3 68/129/3
f 5/130/4 3/8/4 68/129/4 78/131/4
f 4/7/5 6/66/5 77/65/5 76/128/5
f 1/132/4 5/130/4 78/131/4 75/133/4
f 7/15/6 69/127/6 70/134/6 18/35/6
f 23/33/5 22/135/5 71/136/5 81/34/5
f 18/35/1 70/134/1 71/137/1 22/43/1
f 33/52/1 74/138/1 72/139/1 26/53/1
f 26/53/1 72/139/1 73/140/1 32/61/1
f 2/3/1 67/2/1 74/138/1 33/52/1
f 91/112/2 57/117/2 65/60/2 92/19/2
f 94/9/8 121/141/8 122/105/8 93/126/8
f 57/117/2 56/116/2 64/50/2 65/60/2
f 114/142/3 80/18/3 81/34/3 115/87/3
f 113/143/4 79/12/4 80/18/4 114/142/4
f 121/141/3 94/9/3 79/12/3 113/143/3
f 109/144/1 116/145/1 67/2/1 75/1/1
f 77/65/6 84/55/6 74/138/6 67/2/6
f 32/61/1 73/140/1 93/126/1 88/14/1
f 111/101/5 77/65/5 67/2/5 116/145/5
f 31/71/3 57/117/3 91/112/3 87/72/3
f 82/58/6 83/64/6 73/140/6 72/139/6
f 31/71/6 87/72/6 86/20/6 30/59/6
f 65/60/1 30/59/1 86/20/1 92/19/1
f 29/62/2 32/61/2 88/14/2 85/13/2
f 83/64/3 29/63/3 85/10/3 94/9/3
f 84/55/6 82/58/6 72/139/6 74/138/6
f 89/82/1 107/81/1 97/121/1 39/92/1
f 38/104/3 41/102/3 101/124/3 96/125/3
f 43/98/4 38/104/4 96/125/4 103/123/4
f 41/102/5 42/76/5 102/75/5 101/124/5
f 40/99/4 43/98/4 103/123/4 100/122/4
f 39/92/6 97/121/6 98/118/6 45/84/6
f 48/90/5 47/89/5 99/120/5 106/95/5
f 45/84/1 98/118/1 99/119/1 47/85/1
f 49/111/1 59/67/1 95/78/1 100/108/1
f 91/112/3 108/80/3 104/106/3 53/113/3
f 53/113/4 104/106/4 105/93/4 54/114/4
f 54/114/3 105/93/3 106/95/3 55/39/3
f 56/116/2 58/115/2 66/47/2 64/50/2
f 121/141/9 90/79/9 89/82/9 122/105/9
f 58/115/2 51/29/2 59/67/2 66/47/2
f 83/64/6 94/9/6 93/126/6 73/140/6
f 40/109/1 37/77/1 116/145/1 109/144/1
f 90/79/3 121/141/3 113/143/3 44/107/3
f 44/107/4 113/143/4 114/142/4 46/94/4
f 46/94/3 114/142/3 115/87/3 48/90/3
f 108/80/10 91/112/10 92/19/10 107/81/10
f 93/126/1 122/105/1 118/91/1 69/127/1
f 68/129/3 76/128/3 110/100/3 117/103/3
f 78/131/4 68/129/4 117/103/4 112/97/4
f 76/128/5 77/65/5 111/101/5 110/100/5
f 75/133/4 78/131/4 112/97/4 109/96/4
f 69/127/6 118/91/6 119/83/6 70/134/6
f 81/34/5 71/136/5 120/88/5 115/87/5
f 70/134/1 119/83/1 120/86/1 71/137/1
f 42/76/5 111/101/5 116/145/5 37/77/5
