# Blender v2.90.0 OBJ File: 'TrainWallDoor1.blend'
# www.blender.org
mtllib TrainFullDoor.mtl
o Door_Cube.002
v -0.154270 0.156229 -0.000680
v 0.000000 0.156229 -0.000680
v -0.154270 2.981306 -0.000680
v 0.000000 2.981306 -0.000680
v 0.000000 1.568768 -0.000680
v -0.154270 1.568767 -0.000680
v 0.000000 0.156229 2.182185
v 0.000000 2.981306 2.182185
v 0.000000 4.393844 2.182185
v 0.000000 1.568768 2.182185
v -0.154270 0.156229 2.182185
v -0.154270 2.981306 2.182185
v -0.154270 4.393844 2.182185
v -0.154270 1.568767 2.182185
v -0.154270 0.156229 -2.183546
v -0.154270 2.981306 -2.183546
v -0.154270 4.393844 -2.183546
v -0.154270 1.568767 -2.183546
v 0.000000 0.156229 -2.183546
v 0.000000 2.981306 -2.183546
v 0.000000 4.393844 -2.183546
v 0.000000 1.568768 -2.183546
v -0.154270 5.830647 -0.000680
v 0.000000 5.830647 -0.000680
v 0.000000 5.139027 2.182185
v -0.154270 5.139027 2.182185
v -0.154270 5.139027 -2.183546
v 0.000000 5.139027 -2.183546
v -0.154270 0.156229 1.090752
v -0.154270 2.981306 1.090752
v -0.154270 4.393844 1.090752
v -0.154270 1.568767 1.090752
v 0.000000 0.156229 1.090752
v 0.000000 2.981306 1.090752
v 0.000000 4.393844 1.090752
v 0.000000 1.568768 1.090752
v -0.154270 5.696918 1.090752
v 0.000000 5.696918 1.090752
v 0.000000 0.156229 -1.092113
v 0.000000 2.981306 -1.092113
v 0.000000 4.393844 -1.092113
v 0.000000 1.568768 -1.092113
v -0.154270 0.156229 -1.092113
v -0.154270 2.981306 -1.092113
v -0.154270 4.393844 -1.092113
v -0.154270 1.568767 -1.092113
v 0.000000 5.696918 -1.092113
v -0.154270 5.696918 -1.092113
v -0.154270 5.542327 -0.000680
v 0.000000 5.542327 -0.000680
v 0.000000 4.952731 2.182185
v -0.154270 4.952731 2.182185
v -0.154270 4.952731 -2.183546
v 0.000000 4.952731 -2.183546
v 0.000000 5.371150 1.090752
v -0.154270 5.371150 1.090752
v -0.154270 5.371150 -1.092113
v 0.000000 5.371150 -1.092113
v 0.000000 3.266819 -0.000680
v -0.154270 3.266819 -0.000680
v 0.000000 3.266819 2.182185
v -0.154270 3.266819 2.182185
v -0.154270 3.266819 -2.183546
v 0.000000 3.266819 -2.183546
v -0.154270 3.266819 1.090752
v 0.000000 3.266819 1.090752
v 0.000000 3.266819 -1.092113
v -0.154270 3.266819 -1.092113
v -0.154270 4.385767 0.805318
v 0.000000 4.385767 -0.806679
v 0.000000 3.553484 -0.000680
v -0.154270 3.553484 -0.000680
v 0.000000 4.385767 0.805318
v -0.154270 3.553484 0.805318
v 0.000000 3.553484 0.805318
v -0.154270 4.385767 -0.806679
v 0.000000 3.553484 -0.806679
v -0.154270 3.553484 -0.806679
v -0.154270 5.233896 -0.000680
v 0.000000 5.233896 -0.000680
v 0.000000 5.107485 0.805318
v -0.154270 5.107485 0.805318
v -0.154270 5.107485 -0.806679
v 0.000000 5.107485 -0.806679
v -0.154270 0.156229 -2.014872
v -0.154270 2.981306 -2.014872
v -0.154270 4.393844 -2.014872
v -0.154270 1.568767 -2.014872
v -0.154270 5.417973 -2.014872
v 0.000000 0.156229 -2.014872
v 0.000000 2.981306 -2.014872
v 0.000000 4.393844 -2.014872
v 0.000000 1.568768 -2.014872
v 0.000000 5.417973 -2.014872
v -0.154270 5.161940 -2.014872
v 0.000000 5.161940 -2.014872
v -0.154270 3.266819 -2.014872
v 0.000000 3.266819 -2.014872
v 0.000000 0.156229 2.013511
v 0.000000 2.981306 2.013511
v 0.000000 4.393844 2.013511
v 0.000000 1.568768 2.013511
v 0.000000 5.417973 2.013511
v -0.154270 0.156229 2.013511
v -0.154270 2.981306 2.013511
v -0.154270 4.393844 2.013511
v -0.154270 1.568767 2.013511
v -0.154270 5.417973 2.013511
v 0.000000 5.161940 2.013511
v -0.154270 5.161940 2.013511
v 0.000000 3.266819 2.013511
v -0.154270 3.266819 2.013511
v 0.037285 0.156229 2.013511
v 0.037285 0.156229 2.182185
v 0.037285 2.981306 2.013511
v 0.037285 2.981306 2.182185
v 0.037285 4.393844 2.013511
v 0.037285 4.393844 2.182185
v 0.037285 1.568768 2.013511
v 0.037285 1.568768 2.182185
v 0.037285 3.266819 2.182185
v -0.191555 0.156229 2.182185
v -0.191555 1.568767 2.182185
v -0.191555 3.266819 2.182185
v -0.191555 4.393844 2.182185
v -0.191555 2.981306 2.182185
v -0.191555 0.156229 -2.014872
v -0.191555 0.156229 -2.183546
v -0.191555 2.981306 -2.014872
v -0.191555 2.981306 -2.183546
v -0.191555 4.393844 -2.014872
v -0.191555 4.393844 -2.183546
v -0.191555 1.568767 -2.014872
v -0.191555 1.568767 -2.183546
v -0.191555 3.266819 -2.183546
v 0.037285 0.156229 -2.183546
v 0.037285 1.568768 -2.183546
v 0.037285 3.266819 -2.183546
v 0.037285 4.393844 -2.183546
v 0.037285 2.981306 -2.183546
v -0.191555 5.542327 -0.000680
v -0.191555 5.830647 -0.000680
v 0.037285 5.542327 -0.000680
v 0.037285 5.830647 -0.000680
v 0.037285 4.952731 2.182185
v 0.037285 5.139027 2.182185
v -0.191555 4.952731 2.182185
v -0.191555 5.139027 2.182185
v -0.191555 4.952731 -2.183546
v -0.191555 5.139027 -2.183546
v 0.037285 4.952731 -2.183546
v 0.037285 5.139027 -2.183546
v 0.037285 5.696918 -1.092113
v -0.191555 5.696918 1.090752
v 0.037285 5.417973 2.013511
v -0.191555 5.417973 -2.014872
v -0.191555 5.417973 2.013511
v 0.037285 5.696918 1.090752
v 0.037285 5.371150 1.090752
v -0.191555 5.371150 1.090752
v 0.037285 5.417973 -2.014872
v -0.191555 5.696918 -1.092113
v -0.191555 5.371150 -1.092113
v 0.037285 5.371150 -1.092113
v -0.191555 5.161940 -2.014872
v 0.037285 5.161940 2.013511
v -0.191555 5.161940 2.013511
v 0.037285 5.161940 -2.014872
v -0.191555 3.266819 -2.014872
v 0.037285 3.266819 2.013511
v 0.037285 0.156229 -2.014872
v 0.037285 2.981306 -2.014872
v 0.037285 4.393844 -2.014872
v 0.037285 1.568768 -2.014872
v 0.037285 3.266819 -2.014872
v -0.191555 0.156229 2.013511
v -0.191555 2.981306 2.013511
v -0.191555 4.393844 2.013511
v -0.191555 1.568767 2.013511
v -0.191555 3.266819 2.013511
vt 0.625000 0.226562
vt 0.625000 0.218750
vt 0.625000 0.218750
vt 0.625000 0.226562
vt 0.750000 0.539062
vt 0.750000 0.531250
vt 0.750000 0.531250
vt 0.750000 0.539062
vt 0.625000 0.226562
vt 0.625000 0.226562
vt 0.625000 0.226562
vt 0.625000 0.226562
vt 0.625000 0.210938
vt 0.625000 0.210938
vt 0.625000 0.210938
vt 0.625000 0.210938
vt 0.750000 0.531250
vt 0.750000 0.539062
vt 0.625000 0.218750
vt 0.625000 0.226562
vt 0.750000 0.519531
vt 0.750000 0.519531
vt 0.750000 0.519531
vt 0.750000 0.519531
vt 0.750000 0.523438
vt 0.750000 0.519531
vt 0.750000 0.519531
vt 0.750000 0.523438
vt 0.750000 0.546875
vt 0.750000 0.546875
vt 0.750000 0.546875
vt 0.750000 0.546875
vt 0.750000 0.519531
vt 0.750000 0.519531
vt 0.750000 0.519531
vt 0.750000 0.519531
vt 0.625000 0.207031
vt 0.625000 0.207031
vt 0.625000 0.210938
vt 0.750000 0.542969
vt 0.750000 0.542969
vt 0.750000 0.542969
vt 0.750000 0.542969
vt 0.750000 0.539062
vt 0.750000 0.531250
vt 0.750000 0.531250
vt 0.750000 0.539062
vt 0.750000 0.542969
vt 0.750000 0.542969
vt 0.750000 0.542969
vt 0.750000 0.542969
vt 0.625000 0.218750
vt 0.625000 0.218750
vt 0.625000 0.226562
vt 0.750000 0.515625
vt 0.750000 0.515625
vt 0.750000 0.515625
vt 0.750000 0.515625
vt 0.750000 0.542969
vt 0.750000 0.542969
vt 0.750000 0.515625
vt 0.750000 0.515625
vt 0.750000 0.515625
vt 0.750000 0.515625
vt 0.625000 0.210938
vt 0.625000 0.210938
vt 0.625000 0.218750
vt 0.625000 0.210938
vt 0.750000 0.523438
vt 0.750000 0.519531
vt 0.625000 0.230469
vt 0.750000 0.515625
vt 0.625000 0.234375
vt 0.625000 0.234375
vt 0.750000 0.539062
vt 0.750000 0.539062
vt 0.750000 0.515625
vt 0.625000 0.234375
vt 0.625000 0.234375
vt 0.750000 0.515625
vt 0.625000 0.234375
vt 0.625000 0.234375
vt 0.750000 0.519531
vt 0.750000 0.515625
vt 0.625000 0.234375
vt 0.625000 0.230469
vt 0.750000 0.523438
vt 0.750000 0.523438
vt 0.750000 0.539062
vt 0.750000 0.539062
vt 0.750000 0.531250
vt 0.750000 0.523438
vt 0.625000 0.226562
vt 0.625000 0.218750
vt 0.750000 0.539062
vt 0.625000 0.210938
vt 0.750000 0.542969
vt 0.625000 0.207031
vt 0.625000 0.203125
vt 0.625000 0.203125
vt 0.750000 0.546875
vt 0.750000 0.546875
vt 0.625000 0.203125
vt 0.625000 0.203125
vt 0.750000 0.546875
vt 0.750000 0.546875
vt 0.625000 0.203125
vt 0.625000 0.203125
vt 0.750000 0.546875
vt 0.625000 0.203125
vt 0.625000 0.207031
vt 0.625000 0.230469
vt 0.625000 0.230469
vt 0.625000 0.230469
vt 0.625000 0.226562
vt 0.625000 0.230469
vt 0.625000 0.210938
vt 0.625000 0.210938
vt 0.625000 0.230469
vt 0.625000 0.226562
vt 0.750000 0.542969
vt 0.625000 0.218750
vt 0.625000 0.218750
vt 0.750000 0.531250
vt 0.750000 0.523438
vt 0.625000 0.230469
vt 0.625000 0.230469
vt 0.625000 0.234375
vt 0.625000 0.234375
vt 0.750000 0.523438
vt 0.750000 0.531250
vt 0.625000 0.230469
vt 0.625000 0.230469
vt 0.750000 0.542969
vt 0.750000 0.539062
vt 0.750000 0.523438
vt 0.750000 0.523438
vt 0.750000 0.531250
vt 0.750000 0.523438
vt 0.625000 0.234375
vt 0.625000 0.234375
vt 0.625000 0.230469
vt 0.625000 0.207031
vt 0.625000 0.207031
vt 0.625000 0.234375
vt 0.625000 0.230469
vt 0.625000 0.207031
vt 0.625000 0.207031
vt 0.750000 0.539062
vt 0.750000 0.531250
vt 0.625000 0.207031
vt 0.625000 0.207031
vt 0.625000 0.210938
vt 0.625000 0.207031
vt 0.625000 0.207031
vt 0.625000 0.207031
vt 0.625000 0.203125
vt 0.625000 0.203125
vt 0.625000 0.207031
vt 0.625000 0.203125
vt 0.625000 0.203125
vt 0.625000 0.203125
vt 0.750000 0.519531
vt 0.750000 0.515625
vt 0.750000 0.515625
vt 0.750000 0.519531
vt 0.625000 0.203125
vt 0.625000 0.203125
vt 0.625000 0.218750
vt 0.625000 0.226562
vt 0.750000 0.542969
vt 0.625000 0.230469
vt 0.750000 0.523438
vt 0.625000 0.234375
vt 0.625000 0.234375
vt 0.750000 0.546875
vt 0.750000 0.546875
vt 0.750000 0.546875
vt 0.750000 0.546875
vt 0.750000 0.546875
vn -1.0000 0.0000 0.0000
vn 1.0000 0.0000 0.0000
vn 0.0000 0.0000 1.0000
vn 0.0000 -0.9752 0.2211
vn 0.0000 -0.9752 -0.2211
vn 0.0000 0.0000 -1.0000
vn 0.0000 -0.9879 -0.1549
vn 0.0000 -0.9879 0.1549
vn 0.0000 -1.0000 0.0000
vn 0.0000 0.5174 -0.8557
vn 0.0000 0.9926 -0.1216
vn 0.0000 0.9926 0.1216
vn 0.0000 0.9572 0.2894
vn 0.0000 1.0000 0.0000
vn 0.0000 0.9572 -0.2894
vn 0.0000 0.5174 0.8557
usemtl None
s off
f 43/1/1 1/2/1 6/3/1 46/4/1
f 33/5/2 2/6/2 5/7/2 36/8/2
f 57/9/1 45/10/1 76/11/1 83/12/1
f 31/13/1 56/14/1 82/15/1 69/16/1
f 36/8/2 5/7/2 4/17/2 34/18/2
f 46/4/1 6/3/1 3/19/1 44/20/1
f 92/21/3 98/22/3 175/23/3 173/24/3
f 58/25/4 96/26/4 168/27/4 164/28/4
f 25/29/3 51/30/3 145/31/3 146/32/3
f 91/33/3 93/34/3 174/35/3 172/36/3
f 56/14/5 110/37/5 167/38/5 160/39/5
f 102/40/6 100/41/6 115/42/6 119/43/6
f 55/44/7 50/45/7 143/46/7 159/47/7
f 111/48/6 101/49/6 117/50/6 170/51/6
f 57/9/8 49/52/8 141/53/8 163/54/8
f 22/55/6 20/56/6 140/57/6 137/58/6
f 99/59/6 102/40/6 119/43/6 113/60/6
f 64/61/6 21/62/6 139/63/6 138/64/6
f 6/3/1 32/65/1 30/66/1 3/19/1
f 56/14/1 49/52/1 79/67/1 82/15/1
f 1/2/1 29/68/1 32/65/1 6/3/1
f 2/6/9 33/5/9 29/68/9 1/2/9
f 39/69/9 2/6/9 1/2/9 43/1/9
f 90/70/9 39/69/9 43/1/9 85/71/9
f 22/55/6 19/72/6 15/73/6 18/74/6
f 102/40/2 36/8/2 34/18/2 100/41/2
f 111/48/2 66/75/2 35/76/2 101/49/2
f 99/59/2 33/5/2 36/8/2 102/40/2
f 49/52/7 56/14/7 160/39/7 141/53/7
f 19/72/6 22/55/6 137/58/6 136/77/6
f 20/56/6 22/55/6 18/74/6 16/78/6
f 64/61/6 20/56/6 16/78/6 63/79/6
f 54/80/6 21/62/6 17/81/6 53/82/6
f 94/83/10 28/84/10 27/85/10 89/86/10
f 5/7/2 42/87/2 40/88/2 4/17/2
f 55/44/2 35/76/2 73/89/2 81/90/2
f 2/6/2 39/69/2 42/87/2 5/7/2
f 24/91/11 47/92/11 48/93/11 23/94/11
f 38/95/12 24/91/12 23/94/12 37/96/12
f 103/97/13 38/95/13 37/96/13 108/98/13
f 51/30/3 25/29/3 26/99/3 52/100/3
f 61/101/3 9/102/3 13/103/3 62/104/3
f 10/105/3 8/106/3 12/107/3 14/108/3
f 7/109/3 10/105/3 14/108/3 11/110/3
f 99/59/9 7/109/9 11/110/9 104/111/9
f 88/112/1 46/4/1 44/20/1 86/113/1
f 97/114/1 68/115/1 45/10/1 87/116/1
f 85/71/1 43/1/1 46/4/1 88/112/1
f 9/102/3 51/30/3 52/100/3 13/103/3
f 28/84/6 54/80/6 53/82/6 27/85/6
f 65/117/1 31/13/1 69/16/1 74/118/1
f 87/116/1 45/10/1 57/9/1 95/119/1
f 45/10/1 68/115/1 78/120/1 76/11/1
f 101/49/2 35/76/2 55/44/2 109/121/2
f 60/122/1 65/117/1 74/118/1 72/123/1
f 58/25/2 50/45/2 80/124/2 84/125/2
f 88/112/3 86/113/3 129/126/3 133/127/3
f 18/74/6 15/73/6 128/128/6 134/129/6
f 86/113/1 44/20/1 68/115/1 97/114/1
f 8/106/3 61/101/3 62/104/3 12/107/3
f 4/17/2 40/88/2 67/130/2 59/131/2
f 21/62/6 64/61/6 63/79/6 17/81/6
f 100/41/2 34/18/2 66/75/2 111/48/2
f 3/19/1 30/66/1 65/117/1 60/122/1
f 97/114/3 87/116/3 131/132/3 169/133/3
f 101/49/6 109/121/6 166/134/6 117/50/6
f 44/20/1 3/19/1 60/122/1 68/115/1
f 34/18/2 4/17/2 59/131/2 66/75/2
f 73/89/6 75/135/6 74/118/6 69/16/6
f 81/90/6 73/89/6 69/16/6 82/15/6
f 80/124/7 81/90/7 82/15/7 79/67/7
f 84/125/8 80/124/8 79/67/8 83/12/8
f 70/136/3 84/125/3 83/12/3 76/11/3
f 77/137/3 70/136/3 76/11/3 78/120/3
f 71/138/14 77/137/14 78/120/14 72/123/14
f 75/135/14 71/138/14 72/123/14 74/118/14
f 68/115/1 60/122/1 72/123/1 78/120/1
f 35/76/2 66/75/2 75/135/2 73/89/2
f 49/52/1 57/9/1 83/12/1 79/67/1
f 41/139/2 58/25/2 84/125/2 70/136/2
f 67/130/2 41/139/2 70/136/2 77/137/2
f 66/75/2 59/131/2 71/138/2 75/135/2
f 50/45/2 55/44/2 81/90/2 80/124/2
f 59/131/2 67/130/2 77/137/2 71/138/2
f 40/88/2 91/33/2 98/22/2 67/130/2
f 50/45/8 58/25/8 164/28/8 143/46/8
f 41/139/2 92/21/2 96/26/2 58/25/2
f 17/81/6 63/79/6 135/140/6 132/141/6
f 85/71/3 88/112/3 133/127/3 127/142/3
f 110/37/6 106/143/6 178/144/6 167/38/6
f 16/78/6 18/74/6 134/129/6 130/145/6
f 47/92/15 94/83/15 89/86/15 48/93/15
f 87/116/3 95/119/3 165/146/3 131/132/3
f 19/72/9 90/70/9 85/71/9 15/73/9
f 100/41/6 111/48/6 170/51/6 115/42/6
f 42/87/2 93/34/2 91/33/2 40/88/2
f 67/130/2 98/22/2 92/21/2 41/139/2
f 39/69/2 90/70/2 93/34/2 42/87/2
f 30/66/1 105/147/1 112/148/1 65/117/1
f 24/91/12 38/95/12 158/149/12 144/150/12
f 31/13/1 106/143/1 110/37/1 56/14/1
f 96/26/3 92/21/3 173/24/3 168/27/3
f 33/5/9 99/59/9 104/111/9 29/68/9
f 25/29/16 103/97/16 108/98/16 26/99/16
f 112/148/6 105/147/6 177/151/6 180/152/6
f 108/98/13 37/96/13 154/153/13 157/154/13
f 86/113/3 97/114/3 169/133/3 129/126/3
f 98/22/3 91/33/3 172/36/3 175/23/3
f 15/73/9 85/71/9 127/142/9 128/128/9
f 32/65/1 107/155/1 105/147/1 30/66/1
f 65/117/1 112/148/1 106/143/1 31/13/1
f 29/68/1 104/111/1 107/155/1 32/65/1
f 176/156/1 122/157/1 123/158/1 179/159/1
f 180/152/1 124/160/1 125/161/1 178/144/1
f 179/159/1 123/158/1 126/162/1 177/151/1
f 171/163/2 136/77/2 137/58/2 174/35/2
f 175/23/2 138/64/2 139/63/2 173/24/2
f 174/35/2 137/58/2 140/57/2 172/36/2
f 168/27/2 151/164/2 152/165/2 161/166/2
f 167/38/1 147/167/1 148/168/1 157/154/1
f 159/47/2 143/46/2 144/150/2 158/149/2
f 163/54/1 141/53/1 142/169/1 162/170/1
f 166/134/2 159/47/2 158/149/2 155/171/2
f 141/53/1 160/39/1 154/153/1 142/169/1
f 165/146/1 163/54/1 162/170/1 156/172/1
f 143/46/2 164/28/2 153/173/2 144/150/2
f 178/144/1 125/161/1 147/167/1 167/38/1
f 173/24/2 139/63/2 151/164/2 168/27/2
f 172/36/2 140/57/2 138/64/2 175/23/2
f 177/151/1 126/162/1 124/160/1 180/152/1
f 130/145/1 129/126/1 169/133/1 135/140/1
f 132/141/1 131/132/1 165/146/1 149/174/1
f 128/128/1 127/142/1 133/127/1 134/129/1
f 135/140/1 169/133/1 131/132/1 132/141/1
f 134/129/1 133/127/1 129/126/1 130/145/1
f 149/174/1 165/146/1 156/172/1 150/175/1
f 164/28/2 168/27/2 161/166/2 153/173/2
f 116/176/2 115/42/2 170/51/2 121/177/2
f 118/178/2 117/50/2 166/134/2 145/31/2
f 114/179/2 113/60/2 119/43/2 120/180/2
f 121/177/2 170/51/2 117/50/2 118/178/2
f 120/180/2 119/43/2 115/42/2 116/176/2
f 145/31/2 166/134/2 155/171/2 146/32/2
f 160/39/1 167/38/1 157/154/1 154/153/1
f 52/100/3 26/99/3 148/168/3 147/167/3
f 105/147/6 107/155/6 179/159/6 177/151/6
f 93/34/3 90/70/3 171/163/3 174/35/3
f 27/85/6 53/82/6 149/174/6 150/175/6
f 106/143/6 112/148/6 180/152/6 178/144/6
f 54/80/6 28/84/6 152/165/6 151/164/6
f 61/101/3 8/106/3 116/176/3 121/177/3
f 107/155/6 104/111/6 176/156/6 179/159/6
f 47/92/11 24/91/11 144/150/11 153/173/11
f 7/109/9 99/59/9 113/60/9 114/179/9
f 12/107/3 62/104/3 124/160/3 126/162/3
f 37/96/12 23/94/12 142/169/12 154/153/12
f 48/93/15 89/86/15 156/172/15 162/170/15
f 63/79/6 16/78/6 130/145/6 135/140/6
f 103/97/16 25/29/16 146/32/16 155/171/16
f 90/70/9 19/72/9 136/77/9 171/163/9
f 20/56/6 64/61/6 138/64/6 140/57/6
f 38/95/13 103/97/13 155/171/13 158/149/13
f 89/86/10 27/85/10 150/175/10 156/172/10
f 104/111/9 11/110/9 122/157/9 176/156/9
f 8/106/3 10/105/3 120/180/3 116/176/3
f 9/102/3 61/101/3 121/177/3 118/178/3
f 51/30/3 9/102/3 118/178/3 145/31/3
f 28/84/10 94/83/10 161/166/10 152/165/10
f 10/105/3 7/109/3 114/179/3 120/180/3
f 13/103/3 52/100/3 147/167/3 125/161/3
f 95/119/4 57/9/4 163/54/4 165/146/4
f 11/110/3 14/108/3 123/158/3 122/157/3
f 53/82/6 17/81/6 132/141/6 149/174/6
f 26/99/16 108/98/16 157/154/16 148/168/16
f 94/83/15 47/92/15 153/173/15 161/166/15
f 62/104/3 13/103/3 125/161/3 124/160/3
f 21/62/6 54/80/6 151/164/6 139/63/6
f 109/121/5 55/44/5 159/47/5 166/134/5
f 23/94/11 48/93/11 162/170/11 142/169/11
f 14/108/3 12/107/3 126/162/3 123/158/3
o SlideSlot_Cube
v -0.006466 2.279741 -0.709950
v -0.006466 2.866357 -0.709950
v -0.006466 2.279741 -2.136425
v -0.006466 2.866357 -2.136425
v 0.069435 2.279741 -0.709950
v 0.069435 2.866357 -0.709950
v 0.069435 2.279741 -2.136425
v 0.069435 2.866357 -2.136425
v 0.150550 2.757875 -2.136425
v 0.150550 2.388223 -2.136425
v 0.150550 2.388223 -0.709950
v 0.150550 2.757875 -0.709950
vt 0.375000 0.000000
vt 0.625000 0.000000
vt 0.625000 0.250000
vt 0.375000 0.250000
vt 0.625000 0.500000
vt 0.375000 0.500000
vt 0.625000 0.750000
vt 0.625000 0.750000
vt 0.625000 0.500000
vt 0.375000 0.750000
vt 0.625000 1.000000
vt 0.375000 1.000000
vt 0.125000 0.500000
vt 0.125000 0.750000
vt 0.875000 0.500000
vt 0.875000 0.750000
vt 0.375000 0.500000
vt 0.375000 0.750000
vn -1.0000 0.0000 0.0000
vn 0.0000 0.0000 -1.0000
vn 0.8009 0.5988 0.0000
vn 0.0000 0.0000 1.0000
vn 0.0000 -1.0000 0.0000
vn 0.0000 1.0000 0.0000
vn 1.0000 0.0000 0.0000
vn 0.8009 -0.5988 0.0000
usemtl None
s off
f 181/181/17 182/182/17 184/183/17 183/184/17
f 183/184/18 184/183/18 188/185/18 187/186/18
f 188/185/19 186/187/19 192/188/19 189/189/19
f 185/190/20 186/187/20 182/191/20 181/192/20
f 183/193/21 187/186/21 185/190/21 181/194/21
f 188/185/22 184/195/22 182/196/22 186/187/22
f 190/197/23 189/189/23 192/188/23 191/198/23
f 187/186/18 188/185/18 189/189/18 190/197/18
f 186/187/20 185/190/20 191/198/20 192/188/20
f 185/190/24 187/186/24 190/197/24 191/198/24
o DoorBar_Cube.003
v 0.026644 2.491239 -0.337716
v 0.026644 2.734601 -0.337716
v 0.026644 2.491239 -2.337716
v 0.026644 2.734601 -2.337716
v 0.122905 2.491239 -0.337716
v 0.122905 2.734601 -0.337716
v 0.122905 2.491239 -2.337716
v 0.122905 2.734601 -2.337716
v 0.026644 2.491239 -0.576772
v 0.026644 2.734601 -0.576772
v 0.122905 2.491239 -0.576772
v 0.122905 2.734601 -0.576772
v 0.122905 2.682697 -0.525786
v 0.122905 2.682697 -0.388702
v 0.122905 2.543143 -0.388702
v 0.122905 2.543143 -0.525786
v 0.682961 2.682697 -0.525786
v 0.682961 2.682697 -0.388702
v 0.682961 2.543143 -0.388702
v 0.682961 2.543143 -0.525786
v 0.682961 2.512103 -0.358211
v 0.682961 2.512103 -0.556277
v 0.682961 2.713737 -0.556277
v 0.682961 2.713737 -0.358211
v 0.869513 2.512103 -0.358211
v 0.869513 2.512103 -0.556277
v 0.869513 2.713737 -0.556277
v 0.869513 2.713737 -0.358211
vt 0.375000 0.029882
vt 0.625000 0.029882
vt 0.625000 0.250000
vt 0.375000 0.250000
vt 0.625000 0.500000
vt 0.375000 0.500000
vt 0.625000 0.720118
vt 0.625000 0.750000
vt 0.625000 0.750000
vt 0.625000 0.720118
vt 0.375000 0.750000
vt 0.625000 1.000000
vt 0.375000 1.000000
vt 0.125000 0.720118
vt 0.375000 0.720118
vt 0.125000 0.750000
vt 0.875000 0.720118
vt 0.875000 0.750000
vt 0.875000 0.500000
vt 0.125000 0.500000
vt 0.375000 0.000000
vt 0.625000 0.000000
vt 0.375000 0.750000
vt 0.375000 0.750000
vt 0.625000 0.750000
vt 0.375000 0.720118
vt 0.375000 0.720118
vt 0.375000 0.720118
vt 0.375000 0.750000
vt 0.625000 0.720118
vt 0.625000 0.720118
vt 0.625000 0.720118
vt 0.375000 0.720118
vt 0.625000 0.750000
vt 0.625000 0.750000
vt 0.375000 0.750000
vn -1.0000 0.0000 0.0000
vn 0.0000 0.0000 -1.0000
vn 1.0000 0.0000 0.0000
vn 0.0000 0.0000 1.0000
vn 0.0000 -1.0000 0.0000
vn 0.0000 1.0000 0.0000
usemtl None
s off
f 201/199/25 202/200/25 196/201/25 195/202/25
f 195/202/26 196/201/26 200/203/26 199/204/26
f 204/205/27 198/206/27 206/207/27 205/208/27
f 197/209/28 198/206/28 194/210/28 193/211/28
f 201/212/29 203/213/29 197/209/29 193/214/29
f 204/205/30 202/215/30 194/216/30 198/206/30
f 200/203/30 196/217/30 202/215/30 204/205/30
f 195/218/29 199/204/29 203/213/29 201/212/29
f 199/204/27 200/203/27 204/205/27 203/213/27
f 193/219/25 194/220/25 202/200/25 201/199/25
f 206/207/28 207/221/28 211/222/28 210/223/28
f 198/206/27 197/209/27 207/221/27 206/207/27
f 203/213/27 204/205/27 205/208/27 208/224/27
f 197/209/27 203/213/27 208/224/27 207/221/27
f 211/222/25 212/225/25 216/226/25 215/227/25
f 207/221/29 208/224/29 212/225/29 211/222/29
f 205/208/30 206/207/30 210/223/30 209/228/30
f 208/224/26 205/208/26 209/228/26 212/225/26
f 216/226/28 213/229/28 217/230/28 220/231/28
f 209/228/25 210/223/25 214/232/25 213/229/25
f 212/225/25 209/228/25 213/229/25 216/226/25
f 210/223/25 211/222/25 215/227/25 214/232/25
f 220/231/27 217/230/27 218/233/27 219/234/27
f 214/232/26 215/227/26 219/234/26 218/233/26
f 215/227/30 216/226/30 220/231/30 219/234/30
f 213/229/29 214/232/29 218/233/29 217/230/29
